<svg width="134" height="175" viewBox="0 0 134 175" fill="none" xmlns="http://www.w3.org/2000/svg">
<path d="M32.5 0H43.9312L70.5 26.6667L43.9312 15.4941V160H32.5V0Z" fill="black"/>
<path d="M76.5 157C76.5 165.284 62 175.5 35 174.5C14 174.5 0 161.284 0 153C0 144.716 20.335 146 30 146C39.665 146 76.5 148.716 76.5 157Z" fill="black"/>
<rect x="43.5" width="90" height="67" fill="white"/>
<rect x="43.5" y="17" width="18" height="17" fill="black"/>
<rect x="43.5" y="50" width="18" height="17" fill="black"/>
<rect x="61.5" y="34" width="18" height="17" fill="black"/>
<rect x="61.5" width="18" height="17" fill="black"/>
<rect x="79.5" y="17" width="18" height="17" fill="black"/>
<rect x="79.5" y="51" width="18" height="17" fill="black"/>
<rect x="97.5" width="18" height="17" fill="black"/>
<rect x="97.5" y="34" width="18" height="17" fill="black"/>
<rect x="115.5" y="50" width="18" height="17" fill="black"/>
<rect x="115.5" y="17" width="18" height="17" fill="black"/>
</svg>
